<svg xmlns="http://www.w3.org/2000/svg" width="512" height="512" viewBox="0 0 512 512"><defs><linearGradient id="lg" x1="0" y1="0" x2="1" y2="1"><stop offset="0%" stop-color="#09090b"/><stop offset="100%" stop-color="#433946"/></linearGradient></defs><rect width="512" height="512" rx="77" fill="url(#lg)"/><rect x="2.048" y="2.048" width="507.904" height="507.904" rx="74.952" fill="none" stroke="#f6f6f4" stroke-width="4.096" stroke-opacity="0.25"/><g transform="translate(87.0,179.2) scale(6.4000)"><path d="M4.5 16.5c-1.5 1.26-2 5-2 5s3.74-.5 5-2c.71-.84.7-2.13-.09-2.91a2.18 2.18 0 0 0-2.91-.09z" fill="none" stroke="#ffffff" stroke-width="2" stroke-linecap="round" stroke-linejoin="round"/><path d="m12 15-3-3a22 22 0 0 1 2-3.95A12.88 12.88 0 0 1 22 2c0 2.72-.78 7.5-6 11a22.35 22.35 0 0 1-4 2z" fill="none" stroke="#ffffff" stroke-width="2" stroke-linecap="round" stroke-linejoin="round"/><path d="M9 12H4s.55-3.03 2-4c1.62-1.08 5 0 5 0" fill="none" stroke="#ffffff" stroke-width="2" stroke-linecap="round" stroke-linejoin="round"/><path d="M12 15v5s3.03-.55 4-2c1.08-1.62 0-5 0-5" fill="none" stroke="#ffffff" stroke-width="2" stroke-linecap="round" stroke-linejoin="round"/></g><path d="M280.24 331.42L319.83 331.42L319.83 292.04L333.79 274.13L368.58 331.42L416.08 331.42L363.37 247.88L415.04 180.58L368.58 180.58L321.91 242.25L319.83 242.25L319.83 180.58L280.24 180.58Z" fill="#ffffff"/></svg>